<?xml version="1.0" encoding="UTF-8"?>
<svg version="1.1" xmlns="http://www.w3.org/2000/svg" width="150" height="150">
<path d="M0 0 C0.99668701 0.00499512 1.99337402 0.00999023 3.02026367 0.01513672 C19.16407685 0.3918127 33.09918445 6.29595904 44.8125 17.5 C44.8125 18.16 44.8125 18.82 44.8125 19.5 C28.89401868 20.37893455 28.89401868 20.37893455 22.0703125 15.8125 C11.05159687 9.40715666 -3.68475686 10.53313229 -15.58984375 13.328125 C-29.93509305 18.00084464 -40.19323168 27.20396517 -47.1875 40.5 C-52.94982927 53.51608494 -52.92077676 67.32187675 -48.35546875 80.66796875 C-47.20140848 83.58529293 -47.20140848 83.58529293 -45.57421875 86.59765625 C-42.40147105 93.23808313 -44.23731257 99.64528666 -46.53125 106.3359375 C-47.33259958 108.6015868 -47.33259958 108.6015868 -47.1875 111.5 C-45.61162109 111.04947266 -45.61162109 111.04947266 -44.00390625 110.58984375 C-33.63007432 107.73048521 -26.78802621 106.82280798 -16.5 110.5 C-3.96755877 114.86326416 9.42173874 114.73703355 21.4375 109 C26.88530056 106.33159713 26.88530056 106.33159713 31.765625 102.7890625 C34.83936211 100.85331203 37.48193636 101.2130399 41.0625 101.3125 C42.32578125 101.33957031 43.5890625 101.36664063 44.890625 101.39453125 C45.85484375 101.42933594 46.8190625 101.46414062 47.8125 101.5 C47.31641354 105.64653402 45.26939796 107.2281262 42.125 109.8125 C27.20742138 121.52656238 10.55401186 126.15838307 -8.1875 124.5 C-13.54103191 123.64079118 -18.74636428 122.57034412 -23.7265625 120.38671875 C-29.81007179 118.19472413 -36.86982944 120.30855589 -42.875 122.0625 C-47.59563338 123.41799615 -51.29021859 124.18733774 -56.1875 123.5 C-58.75 121.5625 -58.75 121.5625 -60.1875 118.5 C-60.1875 113.86834199 -59.43419532 110.26044037 -58.00390625 105.8515625 C-55.06285078 96.61505856 -54.96495924 91.84378493 -59.578125 82.8828125 C-65.30981623 70.83513142 -64.2636731 54.87271491 -60.1875 42.453125 C-53.23451879 24.79621219 -41.99555942 12.78085834 -24.91577148 4.67504883 C-16.80118686 1.18014988 -8.78659779 -0.05862241 0 0 Z " fill="#313CC2" transform="translate(65.1875,7.5)"/>
<path d="M0 0 C0 0.66 0 1.32 0 2 C-2.203125 3.48046875 -2.203125 3.48046875 -5.25 5.1875 C-6.3328125 5.80109375 -7.415625 6.4146875 -8.53125 7.046875 C-10.24828125 8.01367188 -10.24828125 8.01367188 -12 9 C-14.25501837 10.30407662 -16.50221276 11.6209389 -18.75 12.9375 C-20.5 13.95833333 -22.25 14.97916667 -24 16 C-22.87594198 17.32327972 -22.87594198 17.32327972 -20 17.4375 C-15.51579053 17.39164919 -12.79425081 15.13011925 -9.25 12.59765625 C-2.86491184 8.06380025 3.08270757 5.83318509 11 6 C13.49923438 6.44995129 15.60563942 7.11512761 18 8 C19.32985075 14.16567164 19.32985075 14.16567164 17.9375 17.6875 C15.61378952 20.46096089 13.09000312 22.14599813 10 24 C10.928125 24.433125 11.85625 24.86625 12.8125 25.3125 C17.54545455 27.81818182 17.54545455 27.81818182 19 30 C19.5625 32.875 19.5625 32.875 19 36 C15.83719773 39.16280227 13.00709905 40.99645047 9 43 C11.64 44.32 14.28 45.64 17 47 C17.5625 50.0625 17.5625 50.0625 17 54 C13.47506872 57.76140465 9.23474739 61.31317144 4 62 C1.30988432 61.9886012 -1.31917197 61.91091476 -4 61.75 C-4.75531006 61.71132812 -5.51062012 61.67265625 -6.28881836 61.6328125 C-10.99922376 61.32894762 -15.05748738 60.49591734 -19.5625 59 C-23.66407371 57.79111027 -23.66407371 57.79111027 -27.51171875 59.36328125 C-29.54285606 61.13210763 -31.30470162 62.91079406 -33 65 C-22.77370495 70.7493456 -10.31345964 76.27157552 1.5625 73.375 C4.55900752 71.68466242 6.93193981 69.5752753 9.44921875 67.2421875 C11 66 11 66 13 66 C11.67594169 71.6272478 7.65159306 74.08945689 3 77 C-4.82567441 80.82588527 -14.01329913 79.45423661 -22.09375 77.07421875 C-26.58938031 75.41252744 -30.81803362 73.24454985 -35.0546875 71.01171875 C-37.90510177 69.73139032 -37.90510177 69.73139032 -40.5078125 70.640625 C-41.33023438 71.08921875 -42.15265625 71.5378125 -43 72 C-43.969375 72.48597656 -44.93875 72.97195312 -45.9375 73.47265625 C-47.98023261 74.53310545 -50.02190022 75.59560866 -52.0625 76.66015625 C-57.16831096 78.98900354 -62.43424906 79.65346873 -68 79 C-70.91927604 77.6038245 -72.72202996 76.27797004 -75 74 C-75.5 71.3125 -75.5 71.3125 -75 68 C-73.22983136 65.4322263 -71.19598621 63.20905756 -69 61 C-70.010625 60.319375 -71.02125 59.63875 -72.0625 58.9375 C-74.77075129 56.65483105 -74.97085577 56.32058654 -75.3125 52.5625 C-73.59710387 47.90642479 -70.96330144 45.82501643 -67 43 C-67.56589844 42.79246094 -68.13179687 42.58492187 -68.71484375 42.37109375 C-72.79202519 40.65853424 -74.62211208 39.8707852 -76.4375 35.6875 C-75.87973043 30.98629935 -74.17767435 29.47310904 -70.76171875 26.3828125 C-69 25 -69 25 -67 24 C-67.928125 23.5875 -68.85625 23.175 -69.8125 22.75 C-72.9384333 21.03380133 -74.35432921 20.10848926 -76 17 C-76.5625 14.5625 -76.5625 14.5625 -76 12 C-71.24966003 7.01793613 -66.73069936 5.44768392 -59.875 4.625 C-51.61335352 5.42451418 -43.60398645 8.28682279 -36.390625 12.36328125 C-29.29797103 14.25233778 -23.35792069 11.52361844 -17.24609375 8.05078125 C-15.94865234 7.28314453 -15.94865234 7.28314453 -14.625 6.5 C-12.86823785 5.48775824 -11.11046916 4.47726078 -9.3515625 3.46875 C-8.58666504 3.01951172 -7.82176758 2.57027344 -7.03369141 2.10742188 C-4.67788687 0.82459722 -2.70743965 0 0 0 Z M-71 11 C-70.38722388 13.96175123 -69.74627478 15.38058783 -68 18 C-65.23828025 18.92057325 -63.57509567 19.12851977 -60.7265625 19.1328125 C-59.4890625 19.13474609 -59.4890625 19.13474609 -58.2265625 19.13671875 C-57.36804688 19.13285156 -56.50953125 19.12898438 -55.625 19.125 C-54.34882812 19.13080078 -54.34882812 19.13080078 -53.046875 19.13671875 C-48.90380091 19.13026536 -45.03935564 19.04724035 -41 18 C-41 17.34 -41 16.68 -41 16 C-50.4358773 11.13346486 -60.60961203 6.74938674 -71 11 Z M-14 18 C-11.47350592 20.52649408 -10.3177088 20.33526577 -6.8125 20.5625 C-3.50853403 20.78620603 -0.55908423 21.09715093 2.6875 21.8125 C7.25721754 22.07116326 10.16127793 20.32317465 14 18 C14 16.02 14 14.04 14 12 C4.18708332 7.09354166 -5.82345088 12.75416161 -14 18 Z M-44.15234375 21.16015625 C-48.09630223 22.32332645 -51.91107818 22.65925651 -56 23 C-56 23.33 -56 23.66 -56 24 C-53.15014214 24.87154383 -50.29662264 25.7223681 -47.4375 26.5625 C-46.63763672 26.80935547 -45.83777344 27.05621094 -45.01367188 27.31054688 C-39.09241344 29.0265034 -34.34745303 29.59044318 -28.56640625 26.84375 C-27.90511719 26.4003125 -27.24382812 25.956875 -26.5625 25.5 C-25.88316406 25.0565625 -25.20382813 24.613125 -24.50390625 24.15625 C-24.00761719 23.7746875 -23.51132813 23.393125 -23 23 C-23 22.67 -23 22.34 -23 22 C-30.80937705 19.29994942 -36.22861952 18.72770863 -44.15234375 21.16015625 Z M-62 23 C-58 24 -58 24 -58 24 Z M-26.8125 26.5 C-27.78832031 27.1496875 -28.76414063 27.799375 -29.76953125 28.46875 C-30.50558594 28.9740625 -31.24164063 29.479375 -32 30 C-26.52414312 33.65057126 -23.52063153 34.27828856 -17 33 C-13.59133815 31.69977897 -13.59133815 31.69977897 -10.3125 30.0625 C-9.21550781 29.53785156 -8.11851563 29.01320313 -6.98828125 28.47265625 C-4.65488295 27.32273317 -2.32331635 26.17013743 0 25 C-2.56204544 24.66280953 -5.12454318 24.33012847 -7.6875 24 C-8.40873047 23.90460937 -9.12996094 23.80921875 -9.87304688 23.7109375 C-16.84513059 22.81952954 -20.71385872 22.38525408 -26.8125 26.5 Z M-71 30 C-71.14768913 32.51749828 -71.14768913 32.51749828 -70 35 C-65.09497763 38.64732433 -59.86489858 38.79255386 -54 38 C-50.22693734 36.89813214 -46.61488335 35.539418 -43 34 C-43 33.34 -43 32.68 -43 32 C-50.26361923 29.02005365 -64.55943823 23.55943823 -71 30 Z M-17 36 C-0.77615019 39.23014026 -0.77615019 39.23014026 15 36 C13.08302447 32.35774649 11.83781851 30.51856128 8 29 C-0.14034033 27.73175857 -11.4600776 29.44599012 -17 36 Z M-52 41 C-49.94409546 41.86992154 -47.87994664 42.72037689 -45.8125 43.5625 C-44.08966797 44.27599609 -44.08966797 44.27599609 -42.33203125 45.00390625 C-38.85528038 46.04326319 -37.3680633 46.21250279 -34 45 C-31.73262404 43.62896507 -31.73262404 43.62896507 -29.6875 41.9375 C-28.99011719 41.38964844 -28.29273437 40.84179688 -27.57421875 40.27734375 C-27.05472656 39.85582031 -26.53523438 39.43429688 -26 39 C-34.54262329 30.45737671 -43.64504671 35.43003114 -52 41 Z M-32.55078125 44.16796875 C-34.20680102 45.87210588 -34.20680102 45.87210588 -34 48 C-29.75829532 50.1896899 -25.68506585 52.01311184 -21 53 C-18.2019356 51.98652785 -16.53255076 50.6343729 -14.27734375 48.7109375 C-10.36109106 45.76870992 -5.72278073 45.00634954 -1 44 C-5.6344357 39.3655643 -15.19586798 39.39759615 -21.49755859 38.93945312 C-26.22994064 39.05395369 -29.11760213 41.13023434 -32.55078125 44.16796875 Z M-70 49 C-69.84237847 52.07361983 -69.51912371 53.51992542 -67.234375 55.6328125 C-63.32258424 58.02639076 -59.43765061 57.58240208 -55 57 C-49.95553104 55.548559 -45.54804125 53.98156398 -42 50 C-50.88284764 45.79154426 -61.80898338 40.80898338 -70 49 Z M-18 52 C-18 52.66 -18 53.32 -18 54 C-4.69487964 58.02721183 -4.69487964 58.02721183 9 57 C9.99 56.34 10.98 55.68 12 55 C11.72965366 52.56282742 11.72965366 52.56282742 11 50 C2.56527886 44.37685257 -9.73492016 47.0856282 -18 52 Z M-48.00390625 55.3515625 C-50.05839079 56.99508403 -50.05839079 56.99508403 -52 59 C-49.75438718 59.86762314 -47.50473745 60.7192103 -45.25 61.5625 C-44.61578125 61.80935547 -43.9815625 62.05621094 -43.328125 62.31054688 C-40.74168137 63.26699217 -38.55812653 64.03930469 -35.78125 63.84375 C-33.60700342 62.81384373 -32.03380111 61.54978178 -30.25 59.9375 C-29.63640625 59.38964844 -29.0228125 58.84179688 -28.390625 58.27734375 C-27.93171875 57.85582031 -27.4728125 57.43429688 -27 57 C-33.68966953 50.31033047 -40.58110445 50.10215707 -48.00390625 55.3515625 Z M-69 65 C-70.16977494 67.34872531 -70.16977494 67.34872531 -70 70 C-69.12894624 72.38451799 -69.12894624 72.38451799 -67 74 C-60.58732166 75.83219381 -53.80824025 74.78214802 -47.8046875 71.97265625 C-46.16768439 71.04148646 -44.57748037 70.02879154 -43 69 C-43 68.34 -43 67.68 -43 67 C-55.99882219 61.8842898 -55.99882219 61.8842898 -69 65 Z " fill="#FDC158" transform="translate(130,23)"/>
<path d="M0 0 C1.09570312 0.00902344 2.19140625 0.01804688 3.3203125 0.02734375 C4.16335937 0.03894531 5.00640625 0.05054688 5.875 0.0625 C5.545 1.3825 5.215 2.7025 4.875 4.0625 C-1.56 4.5575 -1.56 4.5575 -8.125 5.0625 C-8.125 3.7425 -8.125 2.4225 -8.125 1.0625 C-5.36047967 -0.31976016 -3.0788637 -0.03275387 0 0 Z " fill="#F8BA4D" transform="translate(135.125,60.9375)"/>
<path d="M0 0 C0 0.66 0 1.32 0 2 C-2.37890625 3.5859375 -2.37890625 3.5859375 -5.5625 5.375 C-6.65175781 5.99246094 -7.74101563 6.60992188 -8.86328125 7.24609375 C-9.89839844 7.82488281 -10.93351562 8.40367188 -12 9 C-13.4175163 9.81101679 -14.83439042 10.62315964 -16.25 11.4375 C-17.61125 12.2109375 -17.61125 12.2109375 -19 13 C-18.99609375 10.76953125 -18.99609375 10.76953125 -18 8 C-15.54844302 6.1615253 -12.84287074 4.95392643 -10.0625 3.6875 C-9.32064453 3.32849609 -8.57878906 2.96949219 -7.81445312 2.59960938 C-2.35279762 0 -2.35279762 0 0 0 Z " fill="#FBC460" transform="translate(130,23)"/>
<path d="M0 0 C-3.3 0.33 -6.6 0.66 -10 1 C-8.35 1.33 -6.7 1.66 -5 2 C-5 2.33 -5 2.66 -5 3 C-15.55808656 4.33257403 -15.55808656 4.33257403 -20 3 C-13.88311325 -1.0779245 -6.75198837 -3.37599419 0 0 Z " fill="#FCC96A" transform="translate(141,49)"/>
<path d="M0 0 C0.33 0.99 0.66 1.98 1 3 C0.31292969 3.20496094 -0.37414062 3.40992188 -1.08203125 3.62109375 C-1.98308594 3.89050781 -2.88414063 4.15992188 -3.8125 4.4375 C-5.15248047 4.83775391 -5.15248047 4.83775391 -6.51953125 5.24609375 C-8.35473055 5.80387873 -10.18033726 6.39344575 -12 7 C-11.8125 5.125 -11.8125 5.125 -11 3 C-7.50314454 1.10170704 -3.9129896 0.54599855 0 0 Z " fill="#FCB54E" transform="translate(125,51)"/>
<path d="M0 0 C0.99 0.33 1.98 0.66 3 1 C3 1.66 3 2.32 3 3 C-0.63 4.98 -4.26 6.96 -8 9 C-8 8.34 -8 7.68 -8 7 C-8.66 6.67 -9.32 6.34 -10 6 C-8.71086513 5.32845067 -7.41859796 4.66291141 -6.125 4 C-5.40570313 3.62875 -4.68640625 3.2575 -3.9453125 2.875 C-2 2 -2 2 0 2 C0 1.34 0 0.68 0 0 Z " fill="#FCCB70" transform="translate(87,90)"/>
<path d="M0 0 C-1.10095362 3.30286086 -1.6896019 3.78510901 -4.4375 5.6875 C-5.36369141 6.34298828 -5.36369141 6.34298828 -6.30859375 7.01171875 C-8 8 -8 8 -10 8 C-10.33 8.99 -10.66 9.98 -11 11 C-11 10.34 -11 9.68 -11 9 C-11.66 8.67 -12.32 8.34 -13 8 C-11.2126038 6.66094733 -9.41995047 5.32890934 -7.625 4 C-6.62726563 3.2575 -5.62953125 2.515 -4.6015625 1.75 C-2 0 -2 0 0 0 Z " fill="#FCCD86" transform="translate(106,61)"/>
<path d="M0 0 C-0.99 0.495 -0.99 0.495 -2 1 C-1.34 1.66 -0.68 2.32 0 3 C-1.43657245 3.33730842 -2.87430093 3.66969591 -4.3125 4 C-5.51326172 4.2784375 -5.51326172 4.2784375 -6.73828125 4.5625 C-9 5 -9 5 -12 5 C-4.50757576 -1.35227273 -4.50757576 -1.35227273 0 0 Z " fill="#FCC76B" transform="translate(66,30)"/>
<path d="M0 0 C-1.24631444 3.84280285 -2.36048692 6.07319896 -6 8 C-8.1328125 7.5703125 -8.1328125 7.5703125 -10 7 C-8.71372289 5.82739389 -7.42080217 4.6620717 -6.125 3.5 C-5.04605469 2.52546875 -5.04605469 2.52546875 -3.9453125 1.53125 C-2 0 -2 0 0 0 Z " fill="#FCC972" transform="translate(143,89)"/>
<path d="M0 0 C0 3 0 3 -1.4609375 4.5703125 C-2.09257813 5.08335938 -2.72421875 5.59640625 -3.375 6.125 C-4.00148438 6.64320312 -4.62796875 7.16140625 -5.2734375 7.6953125 C-7 9 -7 9 -9 10 C-9.66 9.34 -10.32 8.68 -11 8 C-7.37 5.36 -3.74 2.72 0 0 Z " fill="#F5C686" transform="translate(104,79)"/>
<path d="M0 0 C-0.33 0.99 -0.66 1.98 -1 3 C-4.0625 4.1875 -4.0625 4.1875 -7 5 C-7.99 4.01 -8.98 3.02 -10 2 C-6.38026598 0.68373308 -3.90432869 0 0 0 Z " fill="#FDD07B" transform="translate(89,57)"/>
<path d="M0 0 C0 0.66 0 1.32 0 2 C-6.625 6 -6.625 6 -10 6 C-9.67 5.01 -9.34 4.02 -9 3 C-2.88888889 0 -2.88888889 0 0 0 Z " fill="#F9C573" transform="translate(130,23)"/>
<path d="M0 0 C0.33 1.32 0.66 2.64 1 4 C1.66 4 2.32 4 3 4 C2 7 2 7 -0.0625 8.1875 C-0.701875 8.455625 -1.34125 8.72375 -2 9 C-2.99 8.34 -3.98 7.68 -5 7 C-4.0409375 6.6596875 -4.0409375 6.6596875 -3.0625 6.3125 C-0.72806339 5.14749104 -0.72806339 5.14749104 -0.25 2.375 C-0.1675 1.59125 -0.085 0.8075 0 0 Z " fill="#FCDC84" transform="translate(144,36)"/>
<path d="M0 0 C-0.125 1.8125 -0.125 1.8125 -1 4 C-4.0625 5.75 -4.0625 5.75 -7 7 C-6.61402985 4.20171644 -6.19863427 3.1794116 -4.0625 1.25 C-2 0 -2 0 0 0 Z " fill="#FCD078" transform="translate(67,65)"/>
<path d="M0 0 C-1 3 -1 3 -4.0625 4.6875 C-5.031875 5.120625 -6.00125 5.55375 -7 6 C-7.99 5.34 -8.98 4.68 -10 4 C-8.71086513 3.32845067 -7.41859796 2.66291141 -6.125 2 C-5.40570313 1.62875 -4.68640625 1.2575 -3.9453125 0.875 C-2 0 -2 0 0 0 Z " fill="#FCC26E" transform="translate(104,48)"/>
<path d="M0 0 C-0.33 0.99 -0.66 1.98 -1 3 C-2.65 3.33 -4.3 3.66 -6 4 C-6 2.68 -6 1.36 -6 0 C-2.25 -1.125 -2.25 -1.125 0 0 Z " fill="#FCC662" transform="translate(146,60)"/>
<path d="M0 0 C0.99 0.66 1.98 1.32 3 2 C-1.10457614 4.98514628 -3.97745369 5.2954439 -9 5 C-9 4.67 -9 4.34 -9 4 C-7.6078125 3.566875 -7.6078125 3.566875 -6.1875 3.125 C-2.90208333 2.1125 -2.90208333 2.1125 0 0 Z " fill="#FCBF70" transform="translate(118,37)"/>
<path d="M0 0 C2.625 -0.1875 2.625 -0.1875 5 0 C4.67 0.99 4.34 1.98 4 3 C2.02 3 0.04 3 -2 3 C-1.34 2.01 -0.68 1.02 0 0 Z " fill="#FCBE4F" transform="translate(74,97)"/>
</svg>
